<?xml version="1.0" encoding="UTF-8"?>
<svg id="Layer_2" data-name="Layer 2" xmlns="http://www.w3.org/2000/svg" viewBox="0 0 513.54 610.71">
  <path d="M235.5,85.65s-39.11-21.42-64.25,12.1c0,0-52.14,205.77-26.07,270.02,0,0,11.17,144.39-41.9,210.43-53.07,66.04,75.42-42.83,66.11-74.49,0,0,13.97,102.42-1.86,106.14,0,0,48.42-54,63.31-146.18,0,0,22.35,145.25,41.9,146.18,19.55.93,0-144.32,0-144.32,0,0,49.35,141.53,67.97,134.08,18.62-7.45,0-63.31,0-63.31l26.07,20.48s-22.35-139.66-51.21-156.42l41.9,21.42s-61.45-87.52-57.73-106.14c.96-4.81,1.92-22.41,2.63-45.81.13-4.35.25-8.9.37-13.61,1.61-68.01,1.03-168.49-6.72-165.91,0,0-17.69-20-30.73-11.39-13.04,8.6-29.8,6.74-29.8,6.74Z" style="fill: #231f20; stroke: #231f20; stroke-miterlimit: 10;"/>
  <path d="M277.06,44.91c0,10.39,2.08,31.52-8.7,27.5s-52.93-3.05-63.65-.04c-10.72,3-8.67-17.09-8.67-27.46,0-24.53,18.14-44.41,40.51-44.41s40.51,19.88,40.51,44.41Z" style="fill: #fff; stroke: #231f20; stroke-miterlimit: 10;"/>
  <circle cx="221.11" cy="29.68" r="8.26" style="fill: #fff; stroke: #231f20; stroke-miterlimit: 10;"/>
  <circle cx="252.19" cy="29.68" r="8.26" style="fill: #fff; stroke: #231f20; stroke-miterlimit: 10;"/>
  <line x1="223.01" y1="58.97" x2="223.03" y2="70.62" style="fill: none; stroke: #231f20; stroke-miterlimit: 10;"/>
  <line x1="232.05" y1="58.92" x2="232.48" y2="69.96" style="fill: none; stroke: #231f20; stroke-miterlimit: 10;"/>
  <line x1="241.45" y1="58.39" x2="242.06" y2="69.43" style="fill: none; stroke: #231f20; stroke-miterlimit: 10;"/>
  <line x1="250.47" y1="58.39" x2="250.95" y2="69.43" style="fill: none; stroke: #231f20; stroke-miterlimit: 10;"/>
  <polyline points="237.87 39.76 232.88 47.66 242.28 48.19 237.12 39.94" style="fill: none; stroke: #231f20; stroke-miterlimit: 10;"/>
  <polygon points="342.67 125.75 304.32 277.78 304.32 321.28 311.33 338.12 345.95 132.3 342.67 125.75" style="fill: #754c29; stroke: #231f20; stroke-miterlimit: 10;"/>
  <path d="M459.43,156.33s-39.09-84.05-113.48-29.17c0,0,85.55-5.44,113.48,29.17Z" style="fill: #6d6f71; stroke: #231f20; stroke-miterlimit: 10;"/>
</svg>