<?xml version="1.0" encoding="UTF-8"?>
<svg id="Layer_1" xmlns="http://www.w3.org/2000/svg" version="1.1" viewBox="0 0 595.28 841.89">
  <!-- Generator: Adobe Illustrator 30.0.0, SVG Export Plug-In . SVG Version: 2.1.1 Build 123)  -->
  <defs>
    <style>
      .st0, .st1, .st2, .st3, .st4, .st5, .st6, .st7, .st8 {
        stroke-miterlimit: 10;
      }

      .st0, .st1, .st3, .st4, .st5, .st6, .st7, .st8 {
        stroke: #231f20;
      }

      .st0, .st2, .st6, .st7 {
        fill: none;
      }

      .st1 {
        fill: #fff200;
      }

      .st1, .st4, .st6 {
        stroke-width: 4px;
      }

      .st2 {
        stroke: #ed1c24;
        stroke-width: 10px;
      }

      .st3 {
        fill: #fff;
      }

      .st3, .st5 {
        stroke-width: 5px;
      }

      .st4, .st9, .st8, .st10 {
        fill: #231f20;
      }

      .st5 {
        fill: #f9ed32;
      }

      .st9 {
        font-size: 32.43px;
      }

      .st9, .st10 {
        font-family: Arial-Black, 'Arial Black';
        font-weight: 800;
      }

      .st7 {
        stroke-width: 3px;
      }

      .st10 {
        font-size: 33.54px;
      }
    </style>
  </defs>
  <path class="st8" d="M242.94,78.08"/>
  <path class="st1" d="M196.62,94.39h197.5c6.53.28,8.33,4.92,8.43,11.12l77.18,589.48c2.65,9.28,1.07,14.1-4.72,14.49l-55.61,4.72c-5.47,1.03-10.06-1.49-13.82-7.41l-21.23-26.63-107.51,5.73-21.91,33.03c-1.35,4.83-5.15,6.55-10.45,6.4l-54.6,1.69c-7.25.81-9.97-1.88-9.44-7.08l16.18-625.54Z"/>
  <path class="st3" d="M237.35,126.74v34.2c2.66,7.18,7.34,12.49,13.81,16.11h78.58c10.57-3.69,18.59-9.15,22.03-17.76v-32.55s-25.98,0-25.98,0l-3.95-2.96h-54.25l-3.95,2.96h-26.3Z"/>
  <polygon class="st5" points="195.59 93.53 126.4 652.18 179.81 652.18 195.59 93.53"/>
  <path class="st0" d="M195.59,93.53"/>
  <text class="st9" transform="translate(231.3 229.05)"><tspan x="0" y="0">PAS PÅ! </tspan><tspan x="0" y="38.91">DER ER</tspan></text>
  <text class="st10" transform="translate(194.49 548.82) scale(1.01 1)"><tspan x="0" y="0">GRINE-KRISE</tspan></text>
  <text/>
  <path class="st2" d="M309.18,287.21c-23,0-118.09,182.96-105.81,187.3,12.27,4.34,206.76-.14,227.6-3.91,20.84-3.77-98.79-183.39-121.79-183.39Z"/>
  <path class="st6" d="M288.43,373.12s-2.96-21.28,19.96-33.79c.44-.61,17.02.33,19.3,11.72,2.27,11.33-7.02,30.26-18.42,35.39,0,0,13.79-8.39,13.18-10.01,0,0,6.6,7.65,1.16,22.51-5.43,14.86-11.26,13.88-11.26,13.88,0,0,18.25-.41,3.81,23.04,0,0,12.22-6.1,14.18,1.21,1.96,7.32-19.39,12.39-19.39,12.39,0,0-1.14,10.75-22.85,14.41,0,0-9.68,2.72-10.13-.71-.44-3.43,8.09-20.49,8.09-20.49,0,0-22.57,9.27-29.81,5.38-7.23-3.9-.78-20.38-.78-20.38l8.42-10.98s-3.79-3.77-3.09-9.5c.71-5.73,5.87-21.01,5.87-21.01,0,0,8.11-14.33,11.56-14.1,0,0,5.87-4.48,10.17,1.04Z"/>
  <path class="st6" d="M285.75,425.71s4.9-6.99,15.86.02c0,0,6.68,19.16-5.67,23.55,0,0,13.06-5.3,15.02,1.04"/>
  <path class="st6" d="M274.52,391.18l-2.98,14.83,8.03-1.83,4.85-6.16s5.22-4.52,6.79-3.16-3.01,8.86-3.01,8.86l7.86-6.72c2.62-1.93,9.1-2.81,11.96-1.75,0,0,5.25,5.15,2.02,9.9-3.23,4.75-15.08,7.98-15.08,7.98,0,0-26.1,7.45-31.04,4.4"/>
  <path class="st7" d="M302.94,352.49c.64-1.03,4.79-6.49,5.45.99"/>
  <path class="st7" d="M315.72,356s4.65-5.19,4.19,1.82"/>
  <path class="st8" d="M298.92,356.47s4.4,11.36,19.35,4.78c0,0-5.71,21.52-15.37,17.41s-9.58-19.41-3.98-22.19Z"/>
  <polygon class="st6" points="339.72 334.52 344.5 339.77 333.24 346.86 330.67 345.28 339.72 334.52"/>
  <polygon class="st6" points="349.01 352.71 348.59 359.06 336.36 360.24 335.65 357.15 349.01 352.71"/>
  <polygon class="st6" points="332.52 366.76 330.67 372.14 339.53 376.43 342.33 369.21 332.52 366.76"/>
  <path class="st4" d="M285.56,339.33c1.25-2.06,2.55-3.67,3.89-4.81"/>
  <path class="st6" d="M297.97,335.89s-9.27,7.77-10.47,12.45"/>
  <path class="st8" d="M308.39,343.71"/>
</svg>