<?xml version="1.0" encoding="UTF-8"?>
<svg id="Layer_1" data-name="Layer 1" xmlns="http://www.w3.org/2000/svg" viewBox="0 0 5322.33 3154.11">
  <path d="M1787.2,856.21c-4.63,304.61-121.52,515.66-301.28,450.85-179.76-64.81-462.13-501.1-398.54-788.9,30.41-137.62,62.89-300.25,136.24-400.04,44.01-59.88,102.74-97.13,184.55-92.78,310.78,16.51,383.5,536.28,379.02,830.87h.01Z" style="fill: none; stroke: #231f20; stroke-miterlimit: 10; stroke-width: 50px;"/>
  <path d="M1432.81,1287.47c-261.64-198.12-767.99-218.23-767.99-218.23-30.2,20-292.3-365.24-110.06-567.38" style="fill: none; stroke: #231f20; stroke-miterlimit: 10; stroke-width: 50px;"/>
  <path d="M1029.06,372.78c19.25-16.13-92.02,87.82-180.8,131.17" style="fill: none; stroke: #231f20; stroke-miterlimit: 10; stroke-width: 50px;"/>
  <path d="M1532.76,782.44c-28.54,100-105.1,45.49-138.43,33.48-33.33-12.02-65.09-85.48-54.55-156.36,10.81-72.68,38.07-125.68,71.4-113.67,33.33,12.02,212.42,52.34,146.93,183.28l-25.34,53.26Z" style="fill: none; stroke: #231f20; stroke-miterlimit: 10; stroke-width: 50px;"/>
  <path d="M1083.17,540.89s171.78,37.29,310.4,4.67" style="fill: none; stroke: #231f20; stroke-miterlimit: 10; stroke-width: 50px;"/>
  <path d="M1412.67,819.6s-141.9,81.3-235.32,150.13" style="fill: none; stroke: #231f20; stroke-miterlimit: 10; stroke-width: 50px;"/>
  <line x1="1303.8" y1="734.88" x2="1160.51" y2="829.99" style="fill: none; stroke: #231f20; stroke-miterlimit: 10; stroke-width: 50px;"/>
  <path d="M1295.01,670.18s-139.51,9.24-174.41-15.12" style="fill: none; stroke: #231f20; stroke-miterlimit: 10; stroke-width: 50px;"/>
  <path d="M88.94,1102.55s-142.62-230.36-1.84-397.88l153.53-35.25c6.66,7.53-160.78,286.99,45.29,429.72,0,0-112.16,43.41-196.98,3.41h0Z" style="fill: none; stroke: #231f20; stroke-miterlimit: 10; stroke-width: 50px;"/>
  <path d="M285.5,1086.9s97.45-77.16,221.59-40.97c44.54,12.98,71.41,69.34,71.41,69.34,60.98,129.55-1.93,564.01-1.93,564.01-157.97,114.2-171.28-16.77-171.28-16.77l-119.79-575.6c-66.73-65.46-172.46-110.1-47.28-424.74,1.23-3.1,3.59-5.66,6.61-7.11,72.88-35.09,945.92-467.13,1032.83-592.17" style="fill: none; stroke: #231f20; stroke-miterlimit: 10; stroke-width: 50px;"/>
  <path d="M668.74,1063.63c-8.9,24.27-26.62,79.28-90.24,51.65" style="fill: none; stroke: #231f20; stroke-miterlimit: 10; stroke-width: 50px;"/>
  <g style="isolation: isolate;">
    <text transform="translate(336.79 3145.99) scale(.9 1)" style="fill: none; font-family: Katari-Regular, Katari; font-size: 12.47px; isolation: isolate; stroke: #231f20; stroke-miterlimit: 10;"><tspan x="0" y="0">G</tspan></text>
  </g>
  <g style="isolation: isolate;">
    <text transform="translate(2374.51 1122.86) rotate(-42.44) scale(1.22 1)" style="fill: #f26522; font-family: CCHighJinkies-Open, CCHighJinkies; font-size: 433.81px; isolation: isolate;"><tspan x="0" y="0">G</tspan></text>
  </g>
  <g style="isolation: isolate;">
    <text transform="translate(2642.16 894.46) rotate(-33.57) scale(1.22 1)" style="fill: #f26522; font-family: CCHighJinkies-Open, CCHighJinkies; font-size: 433.81px; isolation: isolate;"><tspan x="0" y="0">r</tspan></text>
  </g>
  <g style="isolation: isolate;">
    <text transform="translate(2839.99 752.12) rotate(-18.83) scale(1.22 1)" style="fill: #f26522; font-family: CCHighJinkies-Open, CCHighJinkies; font-size: 433.81px; isolation: isolate;"><tspan x="0" y="0">i</tspan></text>
  </g>
  <g style="isolation: isolate;">
    <text transform="translate(3080.8 655.06) rotate(2.98) scale(1.22 1)" style="fill: #f26522; font-family: CCHighJinkies-Open, CCHighJinkies; font-size: 433.81px; isolation: isolate;"><tspan x="0" y="0">n</tspan></text>
  </g>
  <g style="isolation: isolate;">
    <text transform="translate(3336.2 655.06) rotate(21.72) scale(1.22 1)" style="fill: #f26522; font-family: CCHighJinkies-Open, CCHighJinkies; font-size: 433.81px; isolation: isolate;"><tspan x="0" y="0">e</tspan></text>
  </g>
  <g style="isolation: isolate;">
    <text transform="translate(3531.5 742.9) rotate(32.56) scale(1.22 1)" style="fill: #f26522; font-family: CCHighJinkies-Open, CCHighJinkies; font-size: 433.81px; isolation: isolate;"><tspan x="0" y="0">-</tspan></text>
  </g>
  <g style="isolation: isolate;">
    <text transform="translate(3659.56 823.93) rotate(39.75) scale(1.22 1)" style="fill: #f26522; font-family: CCHighJinkies-Open, CCHighJinkies; font-size: 433.81px; isolation: isolate;"><tspan x="0" y="0">k</tspan></text>
  </g>
  <g style="isolation: isolate;">
    <text transform="translate(3874.76 1006.34) rotate(30.7) scale(1.22 1)" style="fill: #f26522; font-family: CCHighJinkies-Open, CCHighJinkies; font-size: 433.81px; isolation: isolate;"><tspan x="0" y="0">r</tspan></text>
  </g>
  <g style="isolation: isolate;">
    <text transform="translate(4151.4 1114.69) rotate(17.77) scale(1.22 1)" style="fill: #f26522; font-family: CCHighJinkies-Open, CCHighJinkies; font-size: 433.81px; isolation: isolate;"><tspan x="0" y="0">i</tspan></text>
  </g>
  <g style="isolation: isolate;">
    <text transform="translate(4506.97 1174.16) rotate(-9.63) scale(1.22 1)" style="fill: #f26522; font-family: CCHighJinkies-Open, CCHighJinkies; font-size: 433.81px; isolation: isolate;"><tspan x="0" y="0">s</tspan></text>
  </g>
  <g style="isolation: isolate;">
    <text transform="translate(4765.77 1072.82) rotate(-27.77) scale(1.22 1)" style="fill: #f26522; font-family: CCHighJinkies-Open, CCHighJinkies; font-size: 433.81px; isolation: isolate;"><tspan x="0" y="0">e</tspan></text>
  </g>
  <g style="isolation: isolate;">
    <text transform="translate(5071.62 883.05) rotate(-51.65) scale(1.22 1)" style="fill: #f26522; font-family: CCHighJinkies-Open, CCHighJinkies; font-size: 433.81px; isolation: isolate;"><tspan x="0" y="0">!</tspan></text>
  </g>
  <line x1="1855.92" y1="295.53" x2="2308.19" y2="105.31" style="fill: none; stroke: #231f20; stroke-miterlimit: 10; stroke-width: 50px;"/>
  <line x1="1901.6" y1="688.98" x2="2143.73" y2="688.98" style="fill: none; stroke: #231f20; stroke-miterlimit: 10; stroke-width: 50px;"/>
  <line x1="1855.92" y1="1142.5" x2="2239.67" y2="1318.8" style="fill: none; stroke: #231f20; stroke-miterlimit: 10; stroke-width: 50px;"/>
  <path d="M639.86,471.73s268.26,334.09,156.16,608.9" style="fill: none; stroke: #231f20; stroke-miterlimit: 10; stroke-width: 50px;"/>
  <path d="M1096.01,938.01c2.92-.37-140.62,23.24-223.88,8.39" style="fill: none; stroke: #231f20; stroke-miterlimit: 10; stroke-width: 50px;"/>
</svg>