<?xml version="1.0" encoding="UTF-8"?>
<svg id="Layer_2" xmlns="http://www.w3.org/2000/svg" version="1.1" viewBox="0 0 288.21 529.27">
  <!-- Generator: Adobe Illustrator 30.0.0, SVG Export Plug-In . SVG Version: 2.1.1 Build 123)  -->
  <defs>
    <style>
      .st0 {
        fill: none;
      }

      .st0, .st1, .st2, .st3 {
        stroke-miterlimit: 10;
      }

      .st0, .st2, .st3 {
        stroke: #231f20;
      }

      .st1 {
        fill: #6d6f71;
        stroke: #595a5c;
      }

      .st2 {
        fill: #231f20;
      }

      .st3 {
        fill: #ed3e48;
      }
    </style>
  </defs>
  <path class="st1" d="M21.56,1.32l226.33,19.59s21.99,4.2,24.83,30.79c0,0,31.22,414.98,3.55,444.37,0,0-14.9,34.29-45.41,22.39,0,0-184.47,26.59-209.3-5.6,0,0-24.12-19.59-19.16-103.57,0,0,5.75-82.58-.67-83.28s14.86-109.87,4.22-115.47c0,0-4.97-163.05-.71-174.25C9.5,25.09-1.85,27.19,21.56,1.3v.02Z"/>
  <path class="st3" d="M37.86,47.94l5.68,414.28s-.71,16.1,23.41,16.8c24.12.7,48.95,0,48.95,0l97.91-2.8s31.22,4.9,30.51-25.19c-.71-30.09-12.06-121.07-9.22-144.86,0,0,10.64-214.84.71-220.44,0,0,4.97-43.39-37.6-46.89l-117.78-8.4s-36.89-12.6-42.57,17.5h0Z"/>
  <path class="st0" d="M46.49,87.49l3.46,47.81s8.46,13.37,21.54,1.67c0,0,9.61-26.41-14.23-27.75,0,0,23.06-7.36,16.15-16.05-6.92-8.69-16.53-13.04-26.91-5.68h-.01Z"/>
  <polyline class="st0" points="82.64 108.89 83.34 115.3 85.33 133.63"/>
  <path class="st0" d="M98.41,111.23s-9.37-4.24-15.07,4.07"/>
  <path class="st0" d="M108.41,121.26s17.31,1.67,13.46-3.34c-3.85-5.02-16.54,0-16.54,0,0,0-9.23,5.02-6.92,12.04,2.31,7.02,15.38,3.68,15.38,3.68"/>
  <path class="st0" d="M141.1,117.25s-15.77-.67-20.38,13.04c-4.61,13.71,32.3,2.01,20.38-13.04Z"/>
  <line class="st0" x1="145.71" y1="136.37" x2="141.1" y2="117.25"/>
  <line class="st0" x1="163.79" y1="96.85" x2="161.55" y2="136.37"/>
  <polyline class="st0" points="176.48 112.76 161.55 121.26 176.48 133.63"/>
  <line class="st0" x1="189.17" y1="123.2" x2="189.17" y2="136.37"/>
  <line class="st0" x1="189.17" y1="107.97" x2="189.17" y2="111.92"/>
  <line class="st0" x1="198.34" y1="116.88" x2="198.34" y2="134.43"/>
  <path class="st0" d="M213.09,135.2s3.61-16.05-3.43-15.63c-7.03.42-11.55,3.18-11.55,3.18"/>
  <path class="st0" d="M231.32,116.61s-11.15-.43-11.15,11.23,19.1-6.61,10.37-11.24"/>
  <path class="st0" d="M230.39,128.15c-4.35-4.15,14.03,36.39-1.01,32.44-15.93-4.18-9.21-8.64-9.21-8.64"/>
  <polyline class="st0" points="61.58 235.43 56.73 194.53 79.28 231.64 85.33 195.8"/>
  <path class="st0" d="M93.35,217.51s3.15,5.48,11.64,1.26-9.21-16.23-11.64-1.26Z"/>
  <path class="st0" d="M108.38,231.42s-19.2,6.75-15.03-13.91"/>
  <path class="st0" d="M124.87,211.61l5.58,19.61,5.09-12.65s10.67,19.12,18.19,14.3,6.55-21.26,6.55-21.26"/>
  <path class="st0" d="M188.16,209.08s-11.88-7.17-13.82,3.58c-1.94,10.75,12.37,7.71,12.37,7.71,0,0,13.09,2.83,3.88,10.42-9.21,7.59-13.09-1.69-13.09-1.69"/>
  <line class="st0" x1="224.05" y1="198.96" x2="224.05" y2="217.3"/>
  <line class="st0" x1="223.36" y1="225.59" x2="223.36" y2="230.59"/>
  <ellipse class="st2" cx="144.1" cy="501.54" rx="15.63" ry="16.94"/>
</svg>